<?xml version="1.0" encoding="utf-8"?>
<!-- Generator: Adobe Illustrator 26.0.0, SVG Export Plug-In . SVG Version: 6.00 Build 0)  -->
<svg version="1.1" id="Capa_1" xmlns="http://www.w3.org/2000/svg" xmlns:xlink="http://www.w3.org/1999/xlink" x="0px" y="0px"
	 viewBox="0 0 595.3 504.4" style="enable-background:new 0 0 595.3 504.4;" xml:space="preserve">
<style type="text/css">
	.st0{fill:#FFFFFF;}
</style>
<path class="st0" d="M557.2,331.7C530.7,408.9,444.4,501,312,504.4c-127,3.2-241.8-87.5-268-212.3C17.1,163.3,85,49,178.2,0
	C72.9,81.7,58.3,211.6,95.5,299.9c20.3-14.3,41-27.9,54.7-49.6c0.3,0.2,0.7,0.4,0.9,0.6c18.4,28.8,43.9,49.7,73.9,65.2
	c17.3,8.9,35.4,16.4,53,24.8c6.8,3.2,13.4,6.7,19.9,10.3c5,2.9,8.2,7.3,8.8,13.3c2.9,29.1,1.5,57.9-7.3,86.1
	c-0.8,2.7-2.2,5.2-3.4,8.2c52.7,7.4,102.9-0.2,150.4-23.4C493.9,412.1,530.6,377.2,557.2,331.7z"/>
<path class="st0" d="M497.1,157.6c-27.2-0.1-54.4-0.3-81.5-0.2c-3.2,0-4.3-0.9-5.5-4c-3-8.1-6.2-16.5-10.7-23.9
	c-9.2-15.1-22.6-26.3-37-36.2c-1.9-1.3-4.3-2.2-6.6-2.2c-55.1-2.2-110.3-4.3-165.4-6.3c-1.8-0.1-4,0.6-5.4,1.7
	c-12.6,10.3-22.2,22.9-28.1,38.2c-10.7,27.8-9.1,55.7,1.5,82.9c21.7,55.8,62.8,90.7,119.6,107.8c2.8,0.8,5.6,1.4,8.6,2.1
	c0.2-1.1,0.3-1.7,0.3-2.2c0.3-25.9,1-51.8,0.8-77.7c-0.2-24.1-2-48.1-7.9-71.6c-2.2-8.9-5.7-17.6-8.7-26.5c1,0.7,2.1,1.4,3.1,2.3
	c16.4,13.6,27.3,30.8,33.8,50.9c7.5,23.1,8.7,46.9,7.3,70.9c-0.3,5.5-0.8,10.9-1.3,16.5c0.9,0.1,1.5,0.3,2,0.3
	c43.3-0.2,86.6-0.3,129.9-0.6c1.5,0,3.3-0.8,4.3-1.9c21.4-23,37.9-48.9,46.4-79.4c3.6-13.1,5.8-26.5,6.1-40.7
	C500.4,157.6,498.8,157.6,497.1,157.6z M355.7,189.7c-5.3,0-10.1-2.1-13.5-5.5c-0.9-0.9-1.6-1.8-2.3-2.8c-0.3-0.5-0.6-1-0.9-1.6
	c-0.3-0.6-0.6-1.3-0.9-1.9c-0.2-0.4-0.3-0.9-0.5-1.3c-0.6-1.9-0.9-3.9-0.9-6.1c0.1-10.4,8.6-18.7,19.1-18.7
	c10.5,0.1,18.8,8.4,18.8,19C374.6,181.2,366.1,189.7,355.7,189.7z"/>
<path class="st0" d="M306.8,346.5v-45.8C319.2,306.8,324.3,332.4,306.8,346.5z"/>
</svg>
